<svg width="341" height="77" fill="none" xmlns="http://www.w3.org/2000/svg"><path d="M19.05 16.823C25.928 7.816 36.483 2.76 47.838 2.76s21.75 5.056 28.787 14.063c.32.316.64.474.959.474.32 0 .48-.158.8-.316.48-.474.64-1.107.16-1.739C71.186 5.92 59.99.39 47.837.39S24.488 5.92 17.131 15.4c-.48.474-.32 1.265.16 1.739.64.316 1.44.316 1.76-.316zm58.055 42.345c-6.717 9.322-17.752 15.01-29.266 15.01-11.675 0-22.55-5.53-29.267-15.01-.32-.474-1.12-.632-1.759-.316-.64.316-.64 1.106-.32 1.58C23.69 70.386 35.364 76.39 47.84 76.39c12.314 0 24.148-6.004 31.345-15.958.32-.474.32-1.264-.32-1.738-.48-.316-1.28-.158-1.76.474zM20.01 53.795c0 .317.32.475.48.475h6.877c.32 0 .48-.317.48-.475v-30.81c0-.316-.32-.474-.48-.474h-6.876c-.32 0-.48.316-.48.474v11.692H8.496V22.985c0-.316-.32-.474-.64-.474H.98c-.16 0-.48.158-.48.474v30.81c0 .317.32.475.48.475h6.877c.32.158.64-.158.64-.475v-11.85H20.17v11.85h-.16zM57.113 38.47c0 1.263-.16 2.37-.48 3.317l-4.478-4.108c-.16-.158-.16-.158-.32-.158s-.32 0-.32.158l-4.638 4.898v.474c0 .158 0 .316.16.316l4.318 3.634a9.415 9.415 0 01-3.038.474c-5.118 0-8.956-3.95-8.956-9.322 0-5.214 3.838-9.006 8.796-9.006 5.118.158 8.956 4.108 8.956 9.322zm-8.796-16.591c-9.596 0-17.272 7.268-17.272 16.59S38.4 54.902 48.157 54.902c3.358 0 6.557-.79 9.276-2.528l3.198 2.844c.16.158.16.158.32.158s.32 0 .48-.158l4.318-4.74c.16-.159.16-.317.16-.474 0-.158 0-.316-.16-.316l-2.88-2.529c1.76-2.528 2.56-5.688 2.56-8.848 0-9.322-7.357-16.432-17.112-16.432zM84.14 34.835c-5.597-1.422-6.397-2.054-6.397-3.634 0-1.264 1.44-2.212 3.519-2.212 2.399 0 4.957.948 7.836 3.002.16.158.32.158.48.158.16 0 .32-.158.32-.158l3.518-5.056c.16-.158.16-.474-.16-.79-3.358-2.686-7.356-4.108-11.994-4.108-6.717 0-11.515 4.108-11.515 9.954 0 6.636 4.638 8.374 10.715 9.954 5.438 1.422 5.917 2.212 5.917 3.476 0 1.422-1.439 2.37-3.998 2.37-3.038 0-5.917-1.106-8.956-3.634-.16-.158-.64-.158-.8 0l-3.997 4.74c-.16.158-.16.474 0 .79 3.678 3.319 8.476 5.057 13.593 5.057 7.357 0 11.995-3.95 11.995-10.27.32-5.689-3.838-8.059-10.075-9.639z" fill="#BC8C42"/><path d="M158.798 25.039c.16-.474.16-.632.16-.948 0-.474-.32-1.106-.639-1.58 0-.158.16-.474.319-.948.16-.474.16-1.107-.159-1.58-.32-.474-.8-.79-1.28-.948l-.799-.159c-.16-.316-.64-.632-.96-.79-.48-.157-.96-.157-1.439.159l-2.879 1.421c-.8.317-1.119 1.107-.96 1.897v.158c-.479.632-.479 1.422-.159 2.054l-.48 1.422c-.16.632 0 1.422.48 1.896l.159.158-.479 2.844v.474l.16 1.738-.64 2.212c-.16.474 0 1.106.32 1.58l.16.158v.158c-.16.158-.16.474-.16.632l-.48 2.37-3.518-1.422-1.44-1.106c-.16-.158-.479-.316-.639-.316l-1.12-.316c-.799-.948-1.599-1.422-2.399-1.58l-3.838-3.002-1.919-1.896-.8-.632c-.319-.79-.799-1.422-1.279-1.58l-1.439-.948-.32-1.106c-.16-.474-.48-.79-.8-1.106h-.16c-.16-.474-.32-.948-.799-1.106l-.16-1.106c0-.79-.48-1.264-1.28-1.58-.479-.79-1.279-1.422-2.239-2.054-.799-.317-1.599-.317-2.239.316-1.599.158-2.558.948-3.038 2.37-.16.474-.32.948-.32 1.422v4.424c0 .316 0 .474.16.79v.158l-.16 1.58v1.896l-.32 2.844v.79l.16.632-.32 1.264c0 .316-.16.474 0 .79l.16 1.264-.48.79c-.319.474-.319 1.106-.16 1.738.32.79.32 1.106.32 1.106v1.896c0 .316.16.79.32 1.106v.632l.32-.158c-.16.474-.32.948-.16 1.422l.16.474-.48 1.58c0 .158-.16.474-.16.632.16 4.108 2.879 4.424 3.839 4.424h1.119c.64 0 1.119-.316 1.439-.79.8-.948 1.28-2.054 1.6-3.16v-.79l.159-.316c.48-.632.48-1.264.16-1.896V45.58l.64-1.896c.16-.474.16-1.106-.16-1.58v-.632c0-.632-.16-1.264-.32-1.738v-.158l.8-2.528c.16-.316.16-.632 0-1.106.16.158.48.316.8.316l1.439 1.58c.16.316.48.474.8.632l2.558 1.106.64.632c.16.158.32.158.48.316l.639.79c.16.316.48.474.8.632l.8.316.479.474 4.318 2.686c.16.158.32.158.48.158.32.316.64.474.96.474.32 0 .959.158 1.759.158l.96.632c.319.316.799.474 1.279.316l.16.158c.32.316.64.474 1.119.632 0 .948.16 1.896.16 2.844 0 .316.16.632.48.948l.32 2.054c.16.79.64 1.422 1.439 1.58l2.239.633h.48c.64 0 1.279-.317 1.599-.949l.48-.632.8-.632c.639-.632.959-1.58.479-2.37l-.639-1.106-.16-2.37v-.158c.16-.474.32-.948.16-1.422l.479-.632c.32-.474.48-1.106.32-1.738l-.32-1.106.16-.79c0-.158.16-.474 0-.632l-.16-.632.48-2.212v-1.107l.48-1.896v-1.106l.32-.632c.16-.316.16-.474.16-.79v-2.528c.32-.632.639-1.738.959-3.634.32-.632.32-1.264 0-1.896h-.32zm32.305 1.264a2.121 2.121 0 00-1.12-1.264l-.64-.948c-.479-.79-1.279-1.264-2.238-.948l-1.76.474-1.119-.79c-.48-.474-1.12-.632-1.599-.632-.32-.158-.8-.158-1.12-.158h-.32c-.32-.474-.799-.633-1.439-.633l-4.638-.316c-.32 0-.64 0-.959.159l-1.919.948h-.64c-.64.158-1.12.474-1.44.948-.319.474-.639 1.106-1.279 1.896-.8.948-1.279 1.738-1.599 2.37 0 .158 0 .316-.16.474-.16.316-.32.632-.32 1.106-.16.316-.16.632-.16.948v.474c-.32.632-.64 1.422-.64 2.212l-.319.474c-.32.474-.48.948-.32 1.58v.158c-.64.632-1.12 1.422-1.12 2.37v1.106c-.32.79-.479 1.422-.479 1.896v1.58l-.48 3.002-.32.632c-.16.474-.16.948 0 1.422l.16.474c-.16.316-.16.632-.16.948 0 1.58.8 3.792 3.518 5.214.8.948 2.079 1.58 3.519 1.58.479 0 .959-.158 1.279-.474l.48-.316.639-.158c.48-.158.8-.316.96-.632l1.919-2.212 1.599-1.106c.32-.158.64-.474.8-.948l1.119-1.264c.16-.158.32-.316.32-.474l1.28-1.422.16 1.422c0 .79.16 1.58.319 2.528v.79c0 .474.16.79.48 1.264l1.919 2.212c.32.474.96.632 1.44.632h.479c.48.158.96 0 1.44-.158l.959-.632c.64-.316 1.28-.79 1.6-1.264l.959-.948c.32-.474.64-.948.48-1.422 0-.632-.32-1.264-.64-1.896v-.158c0-.316-.16-.632-.32-.948l-.799-1.264-.48-.474.16-.632c.16-.316.16-.79 0-1.106l.16-.158c.32-.632.32-1.264 0-1.896 0-.158 0-.316-.16-.632l-.16-.316.16-.316c.16-.158.16-.474.16-.79v-.158c.639-.632.639-1.58.32-2.212.16-.316.319-.79.16-1.264v-.316c0-.158.159-.474 0-.79v-1.106c.319-.474.479-1.106.479-1.896v-.158l.16-.79.48-.632c.48-.474.48-1.106.32-1.738l-.16-.474c.64-.948.8-1.422.64-2.054zm-13.434 10.27l-.8.79c-.479.158-.959.316-1.279.79-.32.316-.32.79-.32 1.106 0 .158-.16.158-.16.316l-.16.316h-.16c-.479.158-.959.632-1.119 1.106l-.16.316h-.16l-1.919 1.58.16-.474c.16-.316.16-.632.16-1.106v-.632c.16-.316.16-.474.16-.79 0-.158.16-.316.16-.474l.16-.316c.319-.316.479-.79.479-1.264v-.474l.16-.158c.32-.316.32-.79.32-1.106 0-.474.16-.79.48-1.422 0 0 0-.158.16-.158l.32-.316c.799-.632.959-1.738.319-2.528l.32-.948.8-.79c.16-.158.32-.158.48-.316l.959-.316c.16 0 .16-.158.32-.158h.16c.32.158.8.158 1.12.158h.959l.64.158.959.79c0 .158 0 .158-.16.316l-.319.632c-.16.158-.16.474-.16.79l-2.879 4.582zm39.982-10.113h-3.999l-2.398.317-3.039-.316.16-.632v-.79l-.16-.316c.32-.474.48-.948.32-1.422v-1.58l-.16-.632h.16c0-.158.16-.633.16-.79 0-.316 0-.79-.16-1.107v-.474c-.16-2.212-1.759-3.476-3.998-3.476-.48 0-1.28.158-2.559.316-.32 0-.8.316-.96.474l-.479.474c-.32.316-.48.633-.48.948l-.16.633c-.32.474-.48 1.105-.48 1.738 0 .79.16 1.422.64 2.212l.16.316v1.58c-.48.474-.64 1.264-.32 2.054h-.64l-1.119-.158c-.64-.158-1.28.158-1.599.474l-1.12 1.106c-.64.632-.8 1.58-.32 2.37l.48.79c.16 1.896 1.279 3.16 3.198 3.476l.64.474c.16.158.32.158.48.316l.16.474-.16.632v1.106c-.48.474-.64 1.106-.48 1.58l.16.79-.16.316c-.16.632-.16 1.264.32 1.738v.632l.64 3.318 1.279 3.002c0 .158.16.316.32.474l1.919 2.37c.16.316.48.474.96.632l2.239 1.264c.319.158.639.316.959.316h.48c.48.158.959.316 1.439.316.8 0 1.44 0 1.919-.158l1.12-.316h.48c.479 0 .959-.158 1.279-.474l.32-.316c1.439-.474 2.239-1.264 2.719-1.896.959-.632 1.919-1.896 1.919-4.424 0-.474-.16-.948-.64-1.422-.96-.948-2.399-1.58-3.838-1.264-.96.316-1.919.79-2.559 1.422-.48.158-1.12.474-1.599.948l-.16.158h-.96l-.32-.316c-.16-.632-.639-1.106-1.119-1.264v-.158l-.64-1.422-.16-7.584v-.632c.16 0 .16 0 .32.158.64.158 1.28.158 1.759-.316l.48-.316h.96c.319 0 .639-.158.959-.316 1.12.158 2.079-.158 2.879-.474l.48.158c.639.158 1.279.158 1.759-.158.16-.158.48-.316.799-.474a3.49 3.49 0 001.28-.79c1.439-.79 1.919-1.896 1.919-2.528.16-1.422-.8-3.16-3.678-3.16zm-9.596-5.213l-.64.158-.639-.158h1.279zm49.736 23.384c-.799 0-1.439.158-2.079.474l-1.279.632-.64.158h-.959c-.16-.158-.32-.316-.48-.316l-.48-.316-.16-1.106c0-.316-.16-.632-.32-.948l-.16-3.002c.32-.474.48-.948.32-1.422v-.632c.16-.316.16-.474.16-.79a.867.867 0 00.48-.79l.64-2.054.639-.948c.16-.158.32-.474.32-.632l.64-2.686c.16-.474 0-.948-.16-1.422l-.64-.948c-.16-.158-.16-.316-.319-.474l-1.44-1.106c-.32-.316-.799-.474-1.279-.474h-1.759c-.8 0-1.6.632-1.76 1.422-.159.632-.479 1.264-.799 1.896-.16.158-.32.316-.32.474 0 .158-.16.474-.32.632l-.959 2.528c-.48.316-.64.79-.96 1.264-.32.316-.48.632-.64.948l-.799.316c-.48.158-.8.632-.96 1.106l-.16.158c-.32.158-.639.632-.799.948l-.32.474-.64.632a5.479 5.479 0 00-1.919 1.896l-.8.632-.319.316c-.48.158-.8.474-1.12.79l-.64.316c-.319.158-.639.316-.799.632-.16-.316-.16-.632-.48-.948l-.16-.79.16-.632v-.79c0-.474.16-1.106.16-1.58v-.79l.32-.79c.16-.316.16-.79.16-1.106.16-.316.16-.632.16-.948l-.16-4.266.479-1.264c.16-.632 0-1.264-.319-1.738l-1.12-1.264c-.32-.316-.64-.632-1.119-.632l-.96-.158c-.32-.158-.48-.158-.8-.158-2.398.158-3.998 1.58-4.317 3.792v.632c.479 1.58.479 2.054.479 2.054l-.639 3.95v.474l.16 1.58c-.64.632-.96 1.58-.48 2.37-.16.316-.16.632-.16.948l.16.948v1.264c-.16.474-.16 1.106-.16 1.738v.474c-.16.474-.16.948 0 1.422l.32.948c-.16.632 0 1.422.639 1.896l.32.316v.158c0 .632.32 1.264.96 1.58.639.948 1.439 1.422 2.559 1.58l.799.474c.48.316 1.12.316 1.599 0l3.199-1.264c.32-.158.8-.316.959-.632l.32-.474.64-.316c.16-.158.48-.316.64-.474l.639-.79c.16-.158.48-.316.64-.474l1.919-2.054c.48-.158.8-.632 1.28-1.106l.799-.948s0-.158.16-.158c0 .158.16.474.16.632.16.158.16.316.16.474-.32.79-.16 1.58.48 2.212l.48.474.319 1.106c.16.316.32.632.64.948l2.399 1.422c.16.158.32.158.48.316l.959.474c.16 0 .32.158.48.158l1.919.316h.48c1.279 0 2.399-.158 3.358-.632.48-.158 1.12-.158 1.6-.632l.479-.158c.48-.158.8-.316.96-.632l.16-.158c.16-.158.48-.158.639-.316 1.12-1.106 1.6-2.054 1.6-3.16.16-2.212-1.28-3.476-3.519-3.476zm27.989-19.119c-.64-.157-.96-.157-1.12-.157-.639 0-1.279.157-1.599.316-.16 0-.48 0-1.439.157l-1.439.474c-.16 0-.32.159-.48.159l-1.6.948c-.159 0-.319.158-.479.316-.48 0-.96.316-1.28.632l-.479.316-.48.474c-.48.158-.96.474-1.12.79l-.32.632c-.639.316-1.119.79-1.919 1.738v.158c-.16-.948-.32-1.738-.32-2.054l.16-1.58c0-.474 0-.948-.319-1.264l-.32-.474-.16-.79c-.16-.633-.8-1.265-1.44-1.422l-1.439-.317h-.959c-2.559.79-3.999 2.212-3.999 3.793 0 .474.16.948.32 1.422l.32 1.738v.316l-.16.316c-.16.474 0 1.106.16 1.58l.32.474c-.32.632-.32 1.422.16 1.896v1.738c-.16.474-.16 1.106.16 1.58l-.16.79v2.37c0 .474 0 .948.16 1.264-.32.474-.32 1.106-.32 1.58 0 .632.16 1.264.48 1.738 0 .316-.16.632-.16.79 0 .316 0 .79.16 1.422l-.16.632c0 .316 0 .79.16 1.106l.16 1.264c0 .79.48 1.422 1.119 1.738l2.239.948c.16.158.48.158.8.158.32 0 .639 0 .799-.158l1.919-1.106.64-.474c.16-.158.32-.316.48-.632l.8-1.422c.319-.632.319-1.58-.32-2.212l-.64-.632v-.79l.32-.474c.32-.474.48-1.106.16-1.738l.16-.158c0-.158.16-.316.16-.316.479-.158.799-.632.959-1.106.16-.474.16-.948-.16-1.422l.48-.948.48-.948.16-.158c.639-.158.959-.79 1.119-1.264 0-.316.16-.474.16-.632.16-.158.32-.316.32-.474l.64-1.106.799-.79c.48-.158.8-.316 1.12-.632l.64-.79.799-.474c.32-.158.48-.316.64-.632l.799-.316c.64.158 1.28.158 1.76-.158l.799-.474 1.759-.316c.8-.158 1.44-.632 1.6-1.422l.479-2.054v-.632c.16-1.58-1.119-2.686-3.038-2.845zm31.664.79a2.116 2.116 0 00-1.119-1.264l-.64-.948c-.48-.79-1.279-1.264-2.239-.948l-1.759.474-1.119-.79c-.48-.474-1.12-.632-1.6-.632-.319-.158-.639-.158-1.119-.158h-.32c-.32-.474-.8-.632-1.439-.632l-4.638-.316c-.32 0-.64 0-.96.158l-1.919.948h-.639c-.64.158-1.12.474-1.44.948-.32.474-.639 1.107-1.279 1.739-.8.947-1.28 1.738-1.599 2.37 0 .158 0 .316-.16.474-.16.316-.32.632-.32 1.106-.16.316-.16.632-.16.948v.474c-.32.632-.64 1.422-.64 2.212l-.32.474c-.319.474-.479.948-.319 1.58v.158c-.64.632-1.12 1.422-1.12 2.37v1.106c-.32.79-.48 1.422-.48 1.896v1.58l-.479 3.002-.32.632c-.16.474-.16.948 0 1.422l.16.474c-.16.316-.16.632-.16.948 0 1.58.799 3.792 3.518 5.214.8.948 2.079 1.58 3.518 1.58.48 0 .96-.158 1.28-.474l.48-.316.639-.158c.48-.158.8-.316.96-.632l1.919-2.212 1.759-1.106c.32-.158.64-.474.8-.948l1.119-1.264c.16-.158.32-.316.32-.474l1.279-1.422.16 1.422c0 .79.16 1.58.32 2.528v.79c0 .474.16.79.48 1.264l1.919 2.212c.32.474.96.632 1.439.632h.48c.48.158.96 0 1.439-.158l.96-.632c.64-.316 1.279-.79 1.599-1.264l.96-.948c.32-.474.64-.948.48-1.58 0-.632-.32-1.264-.64-1.896v-.158c0-.316-.16-.632-.32-.948l-.8-1.264-.479-.474.16-.632c.16-.316.16-.79 0-1.106l.159-.158c.32-.632.32-1.264 0-1.896 0-.158.001-.316-.159-.632l-.16-.316.16-.316c.16-.158.159-.474.159-.79v-.158c.64-.632.64-1.58.32-2.212.16-.316.32-.79.16-1.264v-.316c0-.158.16-.474 0-.79v-1.106c.16-.474.48-1.106.48-1.896v-.158l.16-.79.48-.632c.48-.474.48-1.106.32-1.738l-.16-.474c.479-.632.639-1.106.479-1.739zm-13.433 10.27l-.8.79c-.48.159-.959.317-1.279.79-.32.317-.32.79-.32 1.107 0 .158-.16.158-.16.316l-.16.316h-.16c-.48.158-.959.632-1.119 1.106l-.16.316h-.16l-1.919 1.58.16-.474c.16-.316.16-.632.16-1.106v-.632c.159-.316.159-.474.159-.79 0-.158.16-.316.16-.474l.16-.316c.32-.316.48-.79.48-1.264v-.474l.16-.158c.32-.316.32-.79.32-1.106 0-.474.16-.79.48-1.422 0 0 0-.158.16-.158l.319-.316c.8-.632.96-1.738.32-2.528l.32-.948c.16-.158.32-.474.8-.79.16-.158.32-.158.48-.316l.959-.316c.16 0 .16-.158.32-.158h.16c.32.158.64.158 1.119.158h.96l.64.158.959.79c0 .158 0 .158-.16.316l-.32.632c-.16.158-.16.474-.16.79l-2.878 4.582zm35.664 5.531c-.48-.79-1.439-1.264-2.719-1.422-.48-.158-.959 0-1.439.316-.16 0-.48 0-.8.158-.959.474-1.759 1.106-2.079 2.054l-.32.316c-.959.316-1.599.948-1.919 1.58-.32 0-.639 0-.639.158h-.8l-.32-1.896v-1.264c0-.158.16-.474.16-.632l.32-2.844c0-.316 0-.632-.16-.948l.16-2.212v-.474l-.16-.632.32-.79c0-.158.16-.316.16-.632v-.948l.32-1.896v-.632c.16-.474.16-.79.16-1.106 0-.316 0-.474-.16-.79v-.158c.16-.474 0-1.106-.32-1.58v-.474c.16-.633.32-1.265.32-1.896l.319-.948a.996.996 0 000-.948l-.319-1.897c.16-.474.319-.948.319-1.738l.16-1.264c.16-.632 0-1.264-.479-1.58l-.48-.474c0-.158-.16-.316-.16-.474-.96-1.738-2.399-2.054-3.199-2.054-.319 0-.639 0-.799.158-.32.158-.96.316-1.759.474-.8.158-1.28.79-1.44 1.58l-.32 3.792v4.109c0 .157.001.474.16.631v.159l-.16 2.37v4.898l-.319.474c-.32.474-.48 1.106-.32 1.58l.16.632-.16.316c-.16.316-.16.632-.16.948l.16.632-.16 1.106-.32.632c-.32.474-.32 1.264 0 1.738l.32.632c0 .474-.16 1.422-.32 2.844v1.106l.32 4.898c0 .316.16.79.48.948l.479.632c.16.474.32.79.64 1.106 0 .316.16.632.32.948l.32.632c.16.316.48.474.64.632l1.119.632c.64.316 1.439.474 2.719.474 1.119 0 2.079-.158 2.878-.474.64 0 1.28-.158 1.919-.632.16-.158.32-.158.32-.316.16-.316.48-.474.96-.632.16 0 .32-.158.48-.158.319 0 .639-.158.799-.316l1.12-.632c.32-.158.479-.316.799-.632l.8-.79c.8-.632 1.439-1.264 1.919-1.896.64-.632.96-1.422.96-2.37-.16-1.264-.32-2.212-.8-2.844z" fill="#27AE4D"/></svg>